<?xml version="1.0" standalone="no"?>
<!DOCTYPE svg PUBLIC "-//W3C//DTD SVG 20010904//EN"
 "http://www.w3.org/TR/2001/REC-SVG-20010904/DTD/svg10.dtd">
<svg version="1.0" xmlns="http://www.w3.org/2000/svg"
 width="1016.000000pt" height="965.000000pt" viewBox="0 0 1016.000000 965.000000"
 preserveAspectRatio="xMidYMid meet">

<g transform="translate(0.000000,965.000000) scale(0.100000,-0.100000)"
fill="#000000" stroke="none">
<path d="M9294 8742 c-211 -228 -320 -346 -370 -402 -75 -84 -535 -542 -669
-666 -553 -512 -943 -812 -1132 -869 -22 -6 -22 -5 6 48 43 82 74 280 87 555
5 96 4 102 -14 102 -18 0 -21 -9 -26 -97 -14 -215 -34 -365 -56 -418 -4 -11
-15 -41 -24 -67 -20 -55 -43 -79 -56 -57 -4 8 -20 28 -34 44 -81 95 -256 320
-256 329 0 3 21 20 48 37 26 18 49 35 52 38 5 6 70 35 155 69 53 21 77 51 73
92 -5 46 -62 39 -251 -30 -92 -33 -171 -60 -177 -60 -6 0 -37 37 -70 83 -33
45 -67 89 -75 98 -8 9 -15 19 -15 23 0 4 -6 14 -12 21 -26 29 -38 44 -38 49 0
3 -31 50 -70 106 -38 56 -70 105 -70 111 0 5 -4 9 -10 9 -5 0 -10 5 -10 12 0
6 -6 19 -14 27 -7 9 -28 42 -46 74 -23 40 -27 55 -16 51 24 -9 19 9 -8 36 -15
13 -32 20 -41 16 -13 -5 -9 -18 24 -85 22 -44 66 -119 98 -168 32 -48 61 -95
64 -103 7 -15 188 -274 208 -297 6 -7 11 -16 11 -21 0 -5 9 -17 20 -27 11 -10
20 -23 20 -30 0 -6 -46 -26 -102 -43 -222 -68 -434 -134 -453 -143 -29 -12
-254 -74 -435 -120 -85 -22 -177 -46 -205 -54 -27 -8 -117 -28 -200 -45 -82
-16 -177 -37 -210 -45 -33 -8 -154 -28 -269 -44 l-208 -30 -22 25 c-11 14 -35
42 -53 62 -122 143 -352 414 -373 440 -14 17 -30 31 -37 32 -10 0 125 -169
372 -464 l75 -90 -28 -11 c-37 -16 -267 -34 -566 -45 -367 -14 -886 7 -1131
44 -154 24 -242 40 -342 60 -175 36 -460 103 -521 122 -39 13 -56 14 -64 6
-13 -13 -19 -10 142 -67 617 -220 1092 -307 1695 -309 220 -1 352 3 405 14 25
5 133 16 240 25 107 9 215 19 241 22 l45 5 100 -113 c56 -63 109 -125 120
-139 10 -13 36 -41 57 -62 20 -21 37 -41 37 -44 0 -3 13 -20 29 -37 113 -123
301 -341 301 -348 0 -5 -4 -9 -10 -9 -5 0 -163 -149 -350 -331 -188 -182 -343
-330 -345 -328 -3 4 -51 65 -85 109 -10 14 -44 57 -75 95 -144 180 -185 234
-185 244 0 6 -4 11 -9 11 -5 0 -11 10 -13 22 -4 25 -28 37 -28 13 0 -17 17
-46 65 -111 16 -23 39 -55 50 -70 11 -15 28 -36 38 -46 9 -10 17 -20 17 -23 0
-3 45 -61 100 -130 55 -68 100 -130 100 -137 0 -7 -258 -271 -574 -587 l-573
-573 -6 238 c-2 132 -10 253 -15 269 -6 17 -19 68 -28 115 -29 151 -82 278
-169 410 -101 152 -270 270 -460 322 -119 32 -396 32 -544 0 -186 -41 -423
-143 -616 -265 -44 -28 -82 -54 -85 -58 -6 -7 -46 -29 -54 -29 -3 0 -6 5 -6
12 0 7 -46 106 -102 220 l-102 208 -33 0 c-27 0 -33 -4 -33 -21 0 -25 44 -126
141 -327 38 -79 69 -145 69 -146 0 -2 -53 -56 -118 -122 -98 -98 -212 -232
-212 -248 0 -2 -16 -28 -36 -57 -87 -129 -170 -340 -195 -495 -14 -88 -7 -319
12 -379 7 -22 13 -42 14 -45 1 -3 5 -14 9 -25 4 -11 12 -33 18 -50 37 -108
140 -280 230 -384 68 -79 215 -218 283 -268 237 -173 301 -216 473 -317 l53
-31 -78 -75 c-43 -41 -111 -104 -152 -140 -41 -36 -102 -90 -135 -122 -34 -31
-189 -172 -346 -315 -254 -231 -382 -349 -560 -517 -65 -62 -191 -207 -237
-274 -34 -49 -67 -139 -54 -147 4 -2 18 22 31 53 45 111 136 214 430 484 240
221 259 238 435 392 85 74 484 437 594 539 57 53 106 97 110 97 4 0 59 -28
122 -62 127 -68 587 -294 661 -324 27 -10 48 -24 48 -30 0 -15 -45 -133 -75
-199 -12 -27 -42 -93 -65 -145 -23 -52 -62 -142 -88 -200 -25 -58 -149 -309
-274 -559 -125 -250 -228 -465 -228 -476 0 -42 21 -85 45 -91 13 -3 29 -3 36
1 11 7 230 281 259 325 8 12 75 98 148 191 72 93 132 172 132 175 0 4 9 16 19
28 20 21 244 303 291 366 14 18 33 43 42 54 10 12 26 32 37 46 l18 24 32 -49
c17 -28 57 -103 89 -167 31 -64 61 -117 66 -117 26 -2 -43 165 -135 325 l-23
41 79 97 c44 54 85 104 91 111 9 12 36 5 165 -41 463 -168 767 -216 807 -129
22 47 15 109 -16 146 -43 55 -202 190 -292 249 -12 8 -28 20 -34 25 -6 6 -22
18 -36 27 -14 9 -69 52 -123 97 l-97 81 77 93 c43 50 83 97 88 103 6 7 26 31
45 55 19 24 131 154 249 289 118 135 235 269 260 299 38 45 128 148 163 186 5
5 33 -15 71 -52 170 -166 285 -193 386 -92 81 82 129 243 118 399 -7 92 -15
125 -53 209 -14 29 -24 60 -22 67 5 24 495 544 512 544 4 0 35 -28 69 -63 34
-34 86 -83 115 -109 l53 -47 -77 -128 c-253 -420 -383 -801 -345 -1008 25
-134 109 -239 221 -272 89 -26 257 -5 379 48 71 31 201 96 252 127 48 28 216
145 250 174 11 9 39 31 62 49 23 18 112 103 197 188 150 150 256 279 342 417
22 35 43 64 47 64 3 -1 24 -24 46 -51 22 -28 51 -64 65 -80 45 -51 72 -89 63
-89 -4 0 -46 23 -93 50 -54 32 -86 46 -89 38 -5 -15 120 -135 190 -182 56 -37
87 -44 107 -24 38 38 -14 121 -222 354 l-38 44 42 97 c50 114 87 236 106 348
24 147 15 374 -21 495 -7 25 -25 90 -40 145 -15 55 -38 123 -50 150 -13 28
-26 60 -30 73 -4 13 -31 75 -61 138 -30 64 -54 121 -54 129 0 22 415 416 677
642 163 141 500 426 554 469 35 27 125 99 199 158 139 111 163 130 200 156 12
8 90 67 175 130 159 119 363 261 545 379 58 38 168 110 245 160 77 51 147 96
155 101 143 91 159 104 147 116 -5 6 -36 -9 -164 -80 -48 -26 -126 -69 -173
-94 -202 -108 -479 -277 -768 -467 -271 -179 -275 -182 -607 -427 -55 -41
-376 -301 -405 -328 -8 -8 -35 -31 -60 -50 -125 -99 -352 -306 -629 -573 -90
-86 -166 -157 -170 -157 -3 0 -19 23 -34 51 l-29 50 159 157 c130 129 161 165
171 200 16 51 10 62 -30 62 -34 0 -85 -35 -218 -149 -90 -77 -149 -125 -161
-129 -5 -2 -34 36 -65 84 -56 87 -91 134 -169 227 -34 40 -44 47 -76 47 -21 0
-39 -6 -42 -12 -2 -7 -2 -52 1 -99 9 -149 -31 -279 -86 -279 -22 0 -122 107
-122 130 0 26 -40 53 -56 39 -18 -14 -4 -48 51 -125 77 -107 145 -131 202 -71
37 38 73 136 74 204 1 26 4 59 8 71 6 23 7 23 23 5 23 -26 188 -275 188 -284
0 -4 -35 -41 -77 -81 -232 -219 -293 -278 -456 -438 -98 -96 -179 -176 -181
-177 -6 -6 -667 719 -663 727 3 7 162 156 272 257 50 44 155 141 235 215 209
192 547 490 605 534 28 20 61 48 75 60 14 13 70 59 124 103 77 62 103 78 113
69 7 -6 13 -17 13 -24 0 -8 4 -14 10 -14 5 0 16 -12 24 -27 8 -16 66 -93 130
-172 64 -80 115 -150 113 -155 -2 -6 -16 -17 -30 -24 -34 -17 -35 -45 -1 -79
24 -24 30 -25 90 -19 45 5 64 3 64 -5 0 -6 -16 -42 -36 -80 -37 -70 -101 -139
-130 -139 -9 0 -41 26 -72 58 -31 31 -61 58 -67 58 -5 1 -15 2 -21 3 -7 0 -15
12 -18 26 -5 18 -13 25 -31 25 -40 0 -50 -32 -50 -165 0 -102 3 -127 22 -167
56 -122 151 -91 156 52 1 33 3 60 5 60 2 0 17 -7 34 -16 43 -23 93 -12 136 28
43 41 82 121 82 169 0 20 3 38 6 42 4 3 70 -59 149 -138 142 -145 168 -162
195 -130 24 29 3 64 -52 90 -35 16 -86 58 -155 127 -57 56 -103 108 -103 114
0 7 15 17 33 23 39 14 211 112 215 123 2 4 8 8 14 8 6 0 55 34 109 75 55 41
103 75 108 75 5 0 11 6 14 13 3 7 24 26 48 42 52 35 183 144 329 273 337 299
701 673 928 952 29 36 62 76 74 90 103 126 308 391 308 399 0 5 4 11 8 13 9 4
52 63 52 72 0 19 -29 -7 -136 -122z m-2654 -1496 c0 -2 -78 -68 -172 -147
-233 -194 -470 -405 -783 -699 -45 -41 -128 -118 -185 -170 -57 -52 -133 -123
-168 -157 -62 -60 -82 -73 -82 -55 0 4 -19 29 -42 55 -24 25 -62 68 -84 94
-23 27 -144 162 -269 301 -125 140 -225 255 -223 257 1 2 30 8 63 13 146 25
415 75 470 87 33 8 139 32 235 55 96 22 182 43 190 47 8 3 78 23 155 44 222
60 393 112 645 197 243 82 250 85 250 78z m146 -657 c31 -50 56 -255 35 -287
-12 -19 -47 28 -63 82 -13 45 -16 185 -4 204 9 15 23 15 32 1z m-1426 -736
c41 -47 84 -97 95 -111 11 -15 39 -47 61 -72 23 -25 111 -121 195 -215 84 -93
167 -186 186 -206 l33 -35 -231 -237 c-127 -130 -237 -237 -244 -237 -7 0 -45
37 -86 83 -134 150 -233 249 -278 278 -50 32 -105 38 -137 15 -34 -25 -20
-179 32 -361 9 -32 -21 5 -316 385 -49 63 -90 120 -90 126 0 9 180 187 558
551 70 67 132 122 137 122 6 0 44 -39 85 -86z m1443 -111 l29 -52 -129 -134
c-129 -133 -375 -410 -425 -476 -14 -19 -37 -47 -51 -63 l-26 -27 -71 70 c-38
39 -70 74 -70 79 0 4 35 41 78 81 42 41 131 126 198 189 109 104 224 212 369
344 28 26 54 45 59 44 5 -2 22 -26 39 -55z m141 -274 c23 -51 48 -109 55 -128
8 -19 20 -50 28 -68 34 -78 84 -265 109 -412 16 -92 13 -301 -6 -375 -44 -169
-112 -350 -130 -343 -3 2 -69 70 -146 153 -122 131 -217 231 -496 520 l-67 70
52 61 c29 33 70 82 92 109 22 26 57 69 79 94 54 64 377 411 382 411 3 0 24
-42 48 -92z m-4411 -78 c220 -26 411 -135 531 -304 39 -54 59 -93 111 -212 16
-37 51 -196 67 -304 13 -88 15 -453 4 -522 -8 -47 -18 -57 -316 -348 -193
-188 -313 -298 -321 -295 -8 4 -27 24 -44 45 -16 21 -97 119 -180 218 -143
170 -361 447 -454 577 -130 182 -201 286 -201 295 0 6 -4 10 -10 10 -5 0 -10
5 -10 10 0 6 -31 58 -70 116 -38 58 -70 107 -70 109 0 2 -27 49 -60 104 -33
56 -60 108 -60 116 0 20 188 144 324 214 61 32 149 70 196 85 47 15 100 34
117 42 46 19 215 46 328 52 17 1 70 -3 118 -8z m2042 -177 c43 -59 151 -201
190 -249 22 -28 47 -61 55 -73 17 -25 18 -26 132 -171 47 -59 89 -124 96 -146
14 -47 45 -84 72 -84 35 0 34 42 0 136 -34 93 -100 343 -100 382 0 12 4 22 9
22 13 0 97 -67 123 -98 12 -16 69 -80 126 -142 56 -62 102 -119 102 -127 0 -8
-55 -71 -122 -141 -230 -240 -258 -271 -628 -677 -100 -110 -185 -201 -189
-203 -9 -3 -161 177 -216 255 -47 67 -102 113 -134 113 -25 0 -34 -6 -42 -27
-11 -28 0 -113 26 -213 7 -27 12 -50 11 -50 -2 0 -20 27 -40 60 -21 33 -44 60
-52 60 -20 0 -19 -2 30 -88 24 -42 61 -112 82 -154 37 -76 64 -98 77 -64 5 14
-20 132 -63 294 -12 46 -19 86 -16 89 7 8 45 -34 116 -128 30 -40 79 -101 108
-135 28 -34 52 -68 52 -74 0 -7 -37 -53 -82 -104 -46 -50 -101 -113 -123 -140
-22 -27 -51 -61 -65 -74 -14 -14 -36 -40 -50 -58 -14 -17 -110 -130 -213 -250
-104 -121 -203 -236 -220 -258 -18 -21 -43 -52 -57 -69 -69 -84 -76 -90 -92
-81 -34 19 -332 285 -367 328 -12 14 -10 31 19 124 110 363 183 698 219 1002
l6 55 595 592 c327 326 597 592 600 593 3 0 14 -12 25 -27z m1529 -188 c48
-54 65 -79 58 -88 -5 -7 -40 -50 -77 -97 -37 -47 -121 -160 -187 -252 -65 -93
-123 -168 -128 -168 -5 0 -57 47 -117 104 l-108 105 235 235 c129 130 240 236
246 236 6 0 41 -34 78 -75z m-4613 -265 c39 -80 75 -153 80 -163 5 -10 48
-100 95 -200 183 -388 233 -492 385 -792 86 -170 180 -355 208 -410 l53 -100
-184 -177 c-100 -98 -186 -178 -191 -178 -4 0 -49 25 -99 55 -50 30 -93 55
-95 55 -8 0 -218 145 -221 152 -2 5 -10 8 -17 8 -7 0 -15 3 -17 8 -1 4 -39 34
-83 67 -108 81 -300 273 -364 365 -103 147 -165 305 -184 471 -9 80 -8 111 6
190 19 105 22 117 30 139 3 8 13 40 23 70 49 157 172 346 337 517 l121 125 23
-29 c13 -15 55 -93 94 -173z m4845 14 c56 -63 127 -139 296 -319 157 -166 338
-370 338 -380 -1 -17 -165 -244 -240 -330 -106 -124 -268 -277 -405 -383 -152
-118 -375 -244 -519 -293 -201 -68 -317 -42 -377 86 -21 46 -25 162 -8 247 20
98 102 312 175 453 65 128 204 368 224 388 4 5 39 -6 76 -24 57 -28 83 -34
152 -37 77 -4 88 -2 146 27 36 17 82 51 106 77 50 55 97 151 106 219 4 28 11
56 17 63 7 9 6 17 -3 25 -10 9 -13 9 -17 0 -12 -34 -87 -137 -142 -196 -123
-131 -231 -150 -368 -64 -9 6 13 43 74 125 48 64 99 135 114 157 16 22 38 52
51 67 13 15 45 57 73 93 27 36 55 65 61 65 6 0 38 -30 70 -66z m-4545 -461
c21 -36 232 -325 254 -349 5 -6 17 -22 25 -34 12 -19 121 -155 323 -404 18
-21 62 -74 99 -116 l67 -78 -99 -96 c-54 -53 -103 -96 -107 -96 -8 0 -269 515
-398 785 -27 55 -81 169 -122 253 -40 85 -73 158 -73 163 0 17 8 9 31 -28z
m3176 -519 c9 -208 -23 -333 -104 -404 -31 -28 -42 -32 -78 -28 -45 6 -123 54
-209 131 l-48 43 178 194 c99 106 192 209 209 228 l29 36 9 -35 c4 -19 10 -93
14 -165z m-1766 -64 c-15 -91 -31 -174 -34 -185 -3 -11 -17 -69 -31 -128 -14
-60 -35 -141 -47 -180 -11 -40 -32 -110 -46 -157 -13 -47 -28 -89 -32 -93 -8
-8 -318 305 -347 349 -13 19 3 38 274 307 196 196 288 281 290 269 1 -9 -11
-91 -27 -182z m-347 -718 l120 -122 -18 -68 c-17 -63 -41 -131 -139 -384 -23
-60 -46 -106 -52 -105 -5 2 -95 173 -200 380 l-190 376 105 106 105 105 75
-82 c41 -46 128 -138 194 -206z m-449 -98 c125 -244 238 -460 262 -501 19 -33
22 -43 10 -43 -22 0 -681 333 -685 347 -2 6 11 24 29 40 18 15 78 72 133 127
119 116 167 157 180 153 5 -2 37 -57 71 -123z m696 -150 c18 -20 308 -286 327
-300 2 -1 -42 -58 -98 -126 -56 -68 -113 -137 -127 -154 l-25 -31 -147 60
c-80 32 -150 63 -155 67 -4 5 1 28 12 52 24 48 89 220 133 348 39 115 37 110
47 110 5 0 19 -12 33 -26z m482 -427 c20 -17 51 -43 68 -56 17 -13 86 -67 153
-120 68 -53 135 -105 150 -116 46 -33 137 -119 148 -139 32 -59 -413 47 -765
183 -25 10 -27 13 -16 33 7 13 20 32 30 43 10 11 52 62 94 113 42 50 82 92 88
92 7 0 29 -15 50 -33z m-593 -229 c52 -22 99 -43 103 -47 7 -7 -92 -138 -108
-144 -3 -1 -36 54 -72 122 -75 141 -81 135 77 69z m-95 -124 l59 -111 -45 -54
c-24 -31 -53 -68 -64 -83 -11 -16 -25 -33 -30 -40 -21 -22 -263 -333 -306
-391 -40 -55 -151 -197 -171 -220 -16 -18 9 39 80 181 62 124 127 262 221 467
17 37 42 98 57 135 15 37 31 72 35 78 5 6 15 28 23 50 8 21 24 61 35 88 26 59
20 64 106 -100z"/>
<path d="M4581 4594 c-59 -87 -80 -227 -41 -277 11 -14 29 -28 39 -32 11 -3
71 17 147 49 70 30 132 52 136 50 18 -11 5 -50 -51 -157 -93 -178 -90 -224 8
-132 97 91 166 299 115 349 -11 11 -34 16 -79 16 -55 0 -74 -6 -166 -51 -97
-49 -103 -51 -116 -33 -7 10 -11 25 -7 34 4 8 11 33 16 55 22 96 75 162 99
124 13 -21 22 -3 9 20 -8 16 -20 21 -48 21 -31 0 -41 -6 -61 -36z"/>
<path d="M4370 4233 c0 -13 -3 -14 -12 -5 -7 7 -24 12 -39 12 -38 0 -59 -49
-59 -137 0 -107 23 -168 85 -230 67 -68 97 -71 148 -14 28 31 37 51 42 94 4
31 4 61 -1 68 -5 9 -1 10 16 6 49 -13 149 70 166 138 8 30 11 31 -56 -11 -80
-49 -136 -34 -185 50 -25 42 -30 46 -66 46 -30 0 -39 -4 -39 -17z m66 -134
c43 -58 41 -186 -2 -203 -20 -8 -60 20 -83 58 -37 61 -59 188 -39 232 l11 23
45 -39 c25 -22 55 -54 68 -71z"/>
<path d="M3675 4233 c-11 -3 -34 -16 -52 -29 -17 -13 -38 -24 -46 -24 -25 0
-67 -65 -67 -102 0 -13 -14 -52 -30 -86 -30 -64 -37 -92 -22 -92 4 0 16 14 25
30 10 17 22 30 26 30 4 0 13 -22 20 -50 7 -27 17 -50 22 -50 5 0 9 -7 9 -15 0
-22 60 -55 100 -55 117 0 208 183 170 344 -16 72 -87 117 -155 99z m81 -98
c12 -19 15 -43 13 -104 -4 -69 -8 -85 -34 -123 -40 -55 -78 -75 -111 -57 -35
19 -64 70 -71 127 -5 48 -4 53 37 100 67 80 135 104 166 57z"/>
<path d="M3780 3648 c1 -50 108 -210 172 -257 91 -67 163 -16 156 110 l-3 54
-13 -44 c-16 -51 -52 -91 -83 -91 -12 0 -41 20 -68 48 -48 49 -51 54 -102 140
-29 48 -59 69 -59 40z"/>
<path d="M3664 3508 c4 -18 15 -49 25 -69 33 -63 94 -210 89 -214 -3 -3 -41
11 -85 30 -79 34 -123 44 -123 26 0 -14 20 -27 120 -75 52 -26 103 -51 112
-56 25 -14 48 14 48 57 0 62 -96 280 -137 313 -40 31 -57 26 -49 -12z"/>
<path d="M5943 5858 c-74 -79 -43 -314 49 -380 38 -26 90 -29 116 -5 34 31 62
101 62 156 0 45 2 51 21 51 30 0 58 17 107 63 39 38 54 67 33 67 -5 0 -30 -9
-56 -21 -60 -26 -88 -19 -137 33 -34 37 -41 40 -77 35 -21 -2 -43 -1 -48 3
-22 20 -50 19 -70 -2z m106 -79 c50 -60 51 -62 51 -129 0 -58 -4 -73 -24 -97
-21 -24 -27 -26 -49 -16 -38 17 -79 113 -80 184 0 62 18 119 38 119 7 0 36
-27 64 -61z"/>
</g>
</svg>
